<svg width="94" height="90" fill="none" xmlns="http://www.w3.org/2000/svg"><path d="M4.871 51.5c-5.096-3.528-2.285-7.024-.13-8.417.086-.057.167-.12.24-.193.25-.25.588-.39.941-.39h1.45m-2.5 9h84m-84 0v15c0 3.143 1.934 9.284 8.724 14m75.275-29c1.706-1.05 3.949-3.545 2.289-6.512-1.077-1.924-3.485-2.488-5.69-2.488H7.371m81.5 9v15c-.252 3.786-2.588 10.784-9.44 15m-72.06-39V7c0-1.667 1-5 5-5h12c1.334 0 4 1.5 4 7.5m0 0l-2.5 1-1.193.597c-.537.268-1.06.573-1.485.996-.634.632-1.322 1.545-1.322 2.407v.498c0 3.59 2.91 6.502 6.5 6.502h.478a6.023 6.023 0 0 0 6.022-6.023c0-.647-.09-1.297-.369-1.881a7.671 7.671 0 0 0-.364-.676c-.808-1.326-2.49-1.781-3.878-2.476L28.37 9.5zm51.06 72c-1.99 1.225-4.362 2.216-7.175 2.824a8.444 8.444 0 0 1-1.787.176H23.45c-1.046 0-2.088-.153-3.068-.517-2.672-.99-4.913-2.183-6.785-3.483m65.836 1l5.44 7.5m-71.276-8.5L8.371 89" stroke="#E73087" stroke-width="3"/></svg>