<svg width="82" height="91" fill="none" xmlns="http://www.w3.org/2000/svg"><circle cx="20.5" cy="13" r="4.5" stroke="#E73087"/><circle cx="41.5" cy="13" r="4.5" stroke="#E73087"/><circle cx="61" cy="12.5" r="5" stroke="#E73087"/><path d="M2 24V6c0-3.2 2.333-4 3.5-4H76c3.2 0 4 2 4 3v19M2 24v55c0 1.333.8 4 4 4h2M2 24c.4-.4 52.167-.167 78 0m0 0v54.5c0 4-3 4.667-4.5 4.5h-1M8 83v4.793A1.707 1.707 0 0 0 9.707 89.5h4.086a1.707 1.707 0 0 0 1.707-1.707V83M8 83h7.5m0 0H67m0 0v4.793a1.707 1.707 0 0 0 1.707 1.707h3.277a2.452 2.452 0 0 0 2.194-1.356l.026-.051c.195-.39.296-.82.296-1.256V83M67 83h7.5m-59-75L26 18M36 8l11 10m6.5-5.5H69m-57 23V72c0 .667.4 2 2 2h55c.667 0 2-.5 2-2.5v-36c0-1-.6-3-3-3H14.5c-.833 0-2.5.6-2.5 3zm19.926 9h17.648a2.75 2.75 0 0 0 0-5.5H31.926a2.75 2.75 0 0 0 0 5.5z" stroke="#E73087" stroke-width="3"/></svg>