<svg width="97" height="88" viewBox="0 0 97 88" fill="none" xmlns="http://www.w3.org/2000/svg">
<path d="M12 79V79C6.47715 79 2 74.5247 2 69.0019C2 43.9417 2 7.0966 2 5C2 2.6 4.66667 2 6 2C13.0845 2 22.0524 2 31.5 2M12 79L8 86.5M12 79H31.5M84 79H85C90.5228 79 95 74.5228 95 69V5.5C95 4.33333 94.3 2 91.5 2C90.2502 2 78.5278 2 63.5 2M84 79L87 87M84 79H63.5M31.5 2V79M31.5 2C42.2333 2 53.5859 2 63.5 2M31.5 79H63.5M63.5 79V2M70.5 38.5V43.5M25 38.5V43.5M39 40.5L46 33.5M39 48L57.5 31.5M39 73L57.5 56" stroke="#FFE602" stroke-width="3"/>
</svg>
