<svg xmlns="http://www.w3.org/2000/svg" viewBox="0 0 60.72 60.72"><defs><style>.cls-1{fill:none;stroke:#e73087;}.cls-2{fill:#e73087;}</style></defs><title>Ресурс 1</title><g id="Слой_2" data-name="Слой 2"><g id="Слой_1-2" data-name="Слой 1"><rect class="cls-1" x="0.5" y="0.5" width="59.72" height="59.72" rx="9.5" ry="9.5"/><path class="cls-2" d="M40.05,30a9.52,9.52,0,0,1,5.06,8.8,10.34,10.34,0,0,1-3.47,8A12.24,12.24,0,0,1,33.12,50H16.79V11.5H32a11.82,11.82,0,0,1,8.3,3.08,9.9,9.9,0,0,1,3.41,7.76A9.39,9.39,0,0,1,40.05,30ZM32,18.59H24.38v8.47H32a3.86,3.86,0,0,0,2.91-1.21,4.1,4.1,0,0,0,1.21-3,4.21,4.21,0,0,0-1.15-3A3.92,3.92,0,0,0,32,18.59Zm1.15,24.31a4.32,4.32,0,0,0,3.19-1.27,4.58,4.58,0,0,0,1.26-3.3,4.32,4.32,0,0,0-1.26-3.19,4.23,4.23,0,0,0-3.19-1.32H24.38v9.08Z"/></g></g></svg>